<?xml version="1.0" encoding="utf-8"?>
<!-- Generator: Adobe Illustrator 24.0.0, SVG Export Plug-In . SVG Version: 6.00 Build 0)  -->
<svg version="1.1" id="Capa_1" xmlns="http://www.w3.org/2000/svg" xmlns:xlink="http://www.w3.org/1999/xlink" x="0px" y="0px"
	 viewBox="0 0 9 11.4" style="enable-background:new 0 0 9 11.4;" xml:space="preserve">
<style type="text/css">
	.st0{fill:#8A8A8A;}
</style>
<path class="st0" d="M1.8,5C1.6,5,1.4,4.9,1.2,4.8c-0.3-0.3-0.3-0.8,0-1.1l3.1-3.4C4.5,0,4.8,0,5,0c0.2,0,0.5,0,0.7,0.2l3.1,3.4
	c0.3,0.3,0.3,0.8,0,1.1C8.6,4.9,8.4,5,8.2,5v0L1.8,5L1.8,5z"/>
<path class="st0" d="M8.2,6.6c0.2,0,0.4,0.1,0.5,0.2c0.3,0.3,0.3,0.8,0,1.1l-3.1,3.4c-0.2,0.2-0.4,0.3-0.7,0.2c-0.2,0-0.5,0-0.7-0.2
	L1.2,8c-0.3-0.3-0.3-0.8,0-1.1c0.2-0.2,0.4-0.2,0.5-0.2v0L8.2,6.6L8.2,6.6z"/>
</svg>
