<svg width="24" height="24" viewBox="0 0 24 24" fill="none" xmlns="http://www.w3.org/2000/svg">
<path fill-rule="evenodd" clip-rule="evenodd" d="M11.7128 19.2C7.41836 19.2 4.77325 16.1777 4.77325 12.3395C4.75492 10.3038 5.56377 8.34778 7.01455 6.91953C8.46533 5.49128 10.4337 4.71314 12.469 4.76333C16.3862 4.76333 19.3095 7.16945 19.3095 10.9678C19.3095 14.4276 17.4803 15.8 15.6506 15.8C14.8656 15.8411 14.1202 15.4525 13.7044 14.7855C13.0393 15.4043 12.1668 15.752 11.2584 15.7601C9.07077 15.7601 7.95983 14.2092 7.95983 12.337C7.92261 11.1779 8.36385 10.0544 9.17998 9.23039C9.99612 8.40637 11.1153 7.95434 12.2748 7.9804C12.9139 7.96037 13.5422 8.1489 14.0647 8.51752L14.1444 8.17956H16.0333L15.0997 12.5543C14.9205 13.4293 15.1197 14.1251 15.9748 14.1251C17.0285 14.1251 17.6453 13.2501 17.6453 10.9236C17.6453 7.8217 15.1993 6.36969 12.4553 6.36969C10.8599 6.31255 9.31303 6.92405 8.18796 8.05668C7.0629 9.1893 6.46177 10.7402 6.5296 12.3352C6.5296 15.4769 8.53802 17.5252 11.7196 17.5252C12.9343 17.5345 14.1338 17.255 15.2192 16.7099L15.8752 18.3206C14.559 18.8844 13.1446 19.1832 11.7128 19.2H11.7128ZM11.5733 13.8905C12.113 13.9114 12.6376 13.71 13.0247 13.3335L13.6608 10.3902C13.2988 10.0265 12.8046 9.82548 12.2915 9.83322C11.6746 9.82751 11.0825 10.0756 10.6539 10.5192C10.2253 10.9629 9.99781 11.5633 10.0248 12.1796C10.023 13.2146 10.5202 13.8905 11.5739 13.8905H11.5733Z" fill="white" fill-opacity="0.2"/>
</svg>
