<svg width="36" height="36" viewBox="0 0 36 36" fill="none" xmlns="http://www.w3.org/2000/svg">
<circle cx="18" cy="18" r="18" fill="#8F8F8F"/>
<path d="M18 18.3022C16.6932 18.3022 15.4157 17.9121 14.3291 17.1813C13.2425 16.4504 12.3956 15.4117 11.8955 14.1963C11.3954 12.981 11.2645 11.6437 11.5195 10.3535C11.7744 9.06334 12.4037 7.87823 13.3278 6.94806C14.2519 6.01789 15.4292 5.38444 16.7109 5.1278C17.9927 4.87117 19.3212 5.00288 20.5286 5.50629C21.7359 6.00969 22.7679 6.86218 23.4939 7.95594C24.22 9.04971 24.6075 10.3356 24.6075 11.6511C24.6075 13.4151 23.9114 15.1068 22.6722 16.3541C21.4331 17.6014 19.7524 18.3022 18 18.3022ZM14.3959 21.3254C14.5767 21.3269 14.7563 21.3549 14.929 21.4085C16.9181 22.1039 19.0819 22.1039 21.071 21.4085C21.2437 21.3549 21.4233 21.3269 21.6041 21.3254C24.8253 21.3254 27.5884 23.1696 29 25.8451C23.8889 31.9603 14.8209 32.7471 8.74573 27.6024C8.11497 27.0679 7.53092 26.48 7 25.8451C8.4116 23.1696 11.1747 21.3254 14.3959 21.3254Z" fill="#303030"/>
</svg>
