<svg width="14" height="17" viewBox="0 0 14 17" fill="none" xmlns="http://www.w3.org/2000/svg">
<path d="M7 13.375C6.51562 13.375 6.125 12.9844 6.125 12.5V10.5C6.125 10.0156 6.51562 9.62501 7 9.62501C7.48438 9.62501 7.875 10.0156 7.875 10.5V12.5C7.875 12.9844 7.48438 13.375 7 13.375ZM14 8.00001V15C14 15.8281 13.3281 16.5 12.5 16.5H1.5C0.671875 16.5 0 15.8281 0 15V8.00001C0 7.17189 0.671875 6.50001 1.5 6.50001H2.5V5.00001C2.5 2.51564 4.525 0.493764 7.0125 0.500014C9.5 0.506264 11.5 2.55626 11.5 5.04376V6.50001H12.5C13.3281 6.50001 14 7.17189 14 8.00001ZM4 6.50001H10V5.00001C10 3.34689 8.65312 2.00001 7 2.00001C5.34688 2.00001 4 3.34689 4 5.00001V6.50001ZM12.5 8.00001H1.5V15H12.5V8.00001Z" fill="white"/>
</svg>
