<svg width="14" height="17" viewBox="0 0 14 17" fill="none" xmlns="http://www.w3.org/2000/svg">
<path d="M12.5 8.00001H4V5.03751C4 3.38751 5.31563 2.01564 6.96875 2.00001C8.6375 1.98126 10 3.33439 10 5.00001V5.75001C10 6.16564 10.3344 6.50001 10.75 6.50001C11.1656 6.50001 11.5 6.16564 11.5 5.75001V5.04376C11.5 2.55626 9.5 0.506264 7.00938 0.500014C4.525 0.493764 2.5 2.51564 2.5 5.00001V8.00001H1.5C0.671875 8.00001 0 8.67189 0 9.50001V15C0 15.8281 0.671875 16.5 1.5 16.5H12.5C13.3281 16.5 14 15.8281 14 15V9.50001C14 8.67189 13.3281 8.00001 12.5 8.00001ZM12.5 15H1.5V9.50001H12.5V15ZM7 14C6.51562 14 6.125 13.6094 6.125 13.125V11.375C6.125 10.8906 6.51562 10.5 7 10.5C7.48438 10.5 7.875 10.8906 7.875 11.375V13.125C7.875 13.6094 7.48438 14 7 14Z" fill="white"/>
</svg>
