<svg width="24" height="26" viewBox="0 0 24 26" fill="none" xmlns="http://www.w3.org/2000/svg">
<path d="M2.3999 7.90002C2.3999 6.01441 2.3999 5.0716 2.98569 4.48581C3.57148 3.90002 4.51428 3.90002 6.3999 3.90002H17.5999C19.4855 3.90002 20.4283 3.90002 21.0141 4.48581C21.5999 5.0716 21.5999 6.01441 21.5999 7.90002V19.1C21.5999 20.9856 21.5999 21.9285 21.0141 22.5142C20.4283 23.1 19.4855 23.1 17.5999 23.1H6.3999C4.51428 23.1 3.57148 23.1 2.98569 22.5142C2.3999 21.9285 2.3999 20.9856 2.3999 19.1V9.92355V7.90002Z" stroke="#FED94B" stroke-width="1.2" stroke-linecap="round" stroke-linejoin="round"/>
<path d="M7.2002 1.5L7.2002 6.3" stroke="#FED94B" stroke-width="1.2" stroke-linecap="round" stroke-linejoin="round"/>
<path d="M16.7998 1.5L16.7998 6.3" stroke="#FED94B" stroke-width="1.2" stroke-linecap="round" stroke-linejoin="round"/>
<path d="M16.8002 11.1H7.2002" stroke="#FED94B" stroke-width="1.2" stroke-linecap="round" stroke-linejoin="round"/>
</svg>
