<svg width="16" height="17" viewBox="0 0 16 17" fill="none" xmlns="http://www.w3.org/2000/svg">
<path fill-rule="evenodd" clip-rule="evenodd" d="M8.00001 15.4202C11.6819 15.4202 14.6667 12.4355 14.6667 8.75358C14.6667 5.07168 11.6819 2.08691 8.00001 2.08691C4.31811 2.08691 1.33334 5.07168 1.33334 8.75358C1.33334 12.4355 4.31811 15.4202 8.00001 15.4202ZM11.197 7.28391C11.4899 6.99102 11.4899 6.51614 11.197 6.22325C10.9041 5.93036 10.4292 5.93036 10.1363 6.22325L7.33334 9.02625L6.53034 8.22325C6.23745 7.93036 5.76257 7.93036 5.46968 8.22325C5.17679 8.51614 5.17679 8.99102 5.46968 9.28391L6.80301 10.6172C7.09591 10.9101 7.57078 10.9101 7.86367 10.6172L11.197 7.28391Z" fill="#9CE95F"/>
</svg>
