<svg width="12" height="12" viewBox="0 0 12 12" fill="none" xmlns="http://www.w3.org/2000/svg">
<path fill-rule="evenodd" clip-rule="evenodd" d="M1.94531 6.00473C1.94531 3.76283 3.76274 1.94541 6.00464 1.94541C8.24654 1.94541 10.064 3.76283 10.064 6.00473C10.064 8.24663 8.24654 10.0641 6.00464 10.0641C3.76274 10.0641 1.94531 8.24663 1.94531 6.00473ZM6.00464 1.05698C3.27207 1.05698 1.05688 3.27216 1.05688 6.00473C1.05688 8.7373 3.27207 10.9525 6.00464 10.9525C8.73721 10.9525 10.9524 8.7373 10.9524 6.00473C10.9524 3.27216 8.73721 1.05698 6.00464 1.05698ZM8.32031 4.81765C8.49379 4.64418 8.49379 4.36292 8.32031 4.18944C8.14684 4.01596 7.86558 4.01596 7.6921 4.18944L5.50424 6.3773L4.81756 5.69062C4.64409 5.51714 4.36282 5.51714 4.18935 5.69062C4.01587 5.8641 4.01587 6.14536 4.18935 6.31883L5.19013 7.31962C5.36361 7.4931 5.64487 7.4931 5.81835 7.31962L8.32031 4.81765Z" fill="#9CE95F"/>
</svg>
