<svg width="24" height="28" viewBox="0 0 18 18" fill="none" xmlns="http://www.w3.org/2000/svg">
<path d="M11.25 1.6875C14.0459 1.6875 16.3125 3.95406 16.3125 6.75C16.3125 9.54594 14.0459 11.8125 11.25 11.8125C10.5832 11.8125 9.94655 11.6833 9.36352 11.449L7.875 12.9375H6.75V14.625H5.0625V16.3125H1.6875V12.9375L6.40466 8.22034C6.26031 7.74358 6.18713 7.24813 6.1875 6.75C6.1875 3.95406 8.45406 1.6875 11.25 1.6875ZM11.25 0C7.52221 0 4.5 3.02182 4.5 6.75C4.5 7.0605 4.52116 7.36956 4.56325 7.67524L0.247113 11.9914C0.0888977 12.1496 1.11527e-05 12.3642 0 12.588L0 17.1562C0 17.6222 0.377754 18 0.84375 18H5.90625C6.37225 18 6.75 17.6222 6.75 17.1562V16.3125H7.59375C8.05975 16.3125 8.4375 15.9347 8.4375 15.4688V14.7656L9.84547 13.3535C10.3045 13.4509 10.774 13.5 11.25 13.5C14.9778 13.5 18 10.4782 18 6.75C18 3.02221 14.9782 0 11.25 0ZM11.25 5.0625C11.25 5.99449 12.0055 6.75 12.9375 6.75C13.8695 6.75 14.625 5.99449 14.625 5.0625C14.625 4.13051 13.8695 3.375 12.9375 3.375C12.0055 3.375 11.25 4.13051 11.25 5.0625Z" fill="#FED94B"/>
</svg>
