<svg width="54" height="39" viewBox="0 0 54 39" fill="none" xmlns="http://www.w3.org/2000/svg">
<path opacity="0.5" d="M25.0673 2.23377C25.4379 0.913014 26.6437 0 28.0175 0H53.2337C53.7322 0 54.0978 0.4679 53.9766 0.950663L51.5324 10.685C51.1907 12.0457 49.9657 13 48.5607 13H23.1985C22.4587 13 21.8161 13.4614 21.5636 14.1258L21.4644 14.5206C21.464 14.5235 21.4637 14.5265 21.4633 14.5294H21.4622L19.9232 20.6586L19.9314 20.6471L18.829 25.0498C18.7081 25.5325 19.0738 26 19.572 26H46.1398C46.6383 26 47.004 26.4679 46.8828 26.9507L44.4385 36.685C44.0968 38.0457 42.8719 39 41.4668 39H16.4679C15.7071 39 15.1564 38.275 15.3616 37.5435L17.6351 29.4401L17.6337 29.4412L18.1925 26.9306C18.2988 26.453 17.9348 26 17.4448 26H16.1018L16.1285 25.9628C15.9533 25.9873 15.7748 26 15.594 26H1.14955C0.388742 26 -0.161954 25.275 0.0432598 24.5435L2.65517 15.2338C3.02572 13.913 4.23153 13 5.60529 13H19.9315C21.0797 13 22.1041 12.2793 22.4903 11.1996L22.7761 10.4004L25.0673 2.23377Z" fill="white" fill-opacity="0.6"/>
</svg>
