<svg width="160" height="23" viewBox="0 0 160 23" fill="none" xmlns="http://www.w3.org/2000/svg">
<path d="M14.5772 1.30298C14.7927 0.532572 15.4939 0 16.2927 0H30.9565C31.2464 0 31.459 0.272931 31.3885 0.554533L29.9671 6.23269C29.7684 7.02642 29.0561 7.58305 28.239 7.58305H13.4904C13.0602 7.58305 12.6865 7.85216 12.5397 8.23972L12.482 8.47002C12.4818 8.47174 12.4816 8.47345 12.4814 8.47517H12.4807L11.5857 12.0504L11.5905 12.0437L10.9494 14.6119C10.8792 14.8934 11.0918 15.1661 11.3815 15.1661H26.8313C27.1212 15.1661 27.3338 15.439 27.2633 15.7206L25.8419 21.3988C25.6432 22.1925 24.9309 22.7492 24.1138 22.7492H9.57641C9.13398 22.7492 8.81374 22.3263 8.93307 21.8996L10.2551 17.1727L10.2543 17.1734L10.5793 15.7089C10.6411 15.4304 10.4294 15.1661 10.1445 15.1661H9.36355L9.37903 15.1444C9.27718 15.1587 9.17339 15.1661 9.06821 15.1661H0.668489C0.226062 15.1661 -0.0941793 14.7432 0.0251565 14.3165L1.54404 8.88603C1.75952 8.11562 2.46072 7.58305 3.25959 7.58305H11.5906C12.2583 7.58305 12.854 7.16265 13.0786 6.53286L13.2448 6.06669L14.5772 1.30298Z" fill="url(#paint0_linear)"/>
<path d="M14.5772 1.30298C14.7927 0.532572 15.4939 0 16.2927 0H30.9565C31.2464 0 31.459 0.272931 31.3885 0.554533L29.9671 6.23269C29.7684 7.02642 29.0561 7.58305 28.239 7.58305H13.4904C13.0602 7.58305 12.6865 7.85216 12.5397 8.23972L12.482 8.47002C12.4818 8.47174 12.4816 8.47345 12.4814 8.47517H12.4807L11.5857 12.0504L11.5905 12.0437L10.9494 14.6119C10.8792 14.8934 11.0918 15.1661 11.3815 15.1661H26.8313C27.1212 15.1661 27.3338 15.439 27.2633 15.7206L25.8419 21.3988C25.6432 22.1925 24.9309 22.7492 24.1138 22.7492H9.57641C9.13398 22.7492 8.81374 22.3263 8.93307 21.8996L10.2551 17.1727L10.2543 17.1734L10.5793 15.7089C10.6411 15.4304 10.4294 15.1661 10.1445 15.1661H9.36355L9.37903 15.1444C9.27718 15.1587 9.17339 15.1661 9.06821 15.1661H0.668489C0.226062 15.1661 -0.0941793 14.7432 0.0251565 14.3165L1.54404 8.88603C1.75952 8.11562 2.46072 7.58305 3.25959 7.58305H11.5906C12.2583 7.58305 12.854 7.16265 13.0786 6.53286L13.2448 6.06669L14.5772 1.30298Z" fill="url(#paint1_linear)"/>
<g style="mix-blend-mode:multiply">
<path d="M14.5772 1.30298C14.7927 0.532572 15.4939 0 16.2927 0H30.9565C31.2464 0 31.459 0.272931 31.3885 0.554533L29.9671 6.23269C29.7684 7.02642 29.0561 7.58305 28.239 7.58305H13.4904C13.0602 7.58305 12.6865 7.85216 12.5397 8.23972L12.482 8.47002C12.4818 8.47174 12.4816 8.47345 12.4814 8.47517H12.4807L11.5857 12.0504L11.5905 12.0437L10.9494 14.6119C10.8792 14.8934 11.0918 15.1661 11.3815 15.1661H26.8313C27.1212 15.1661 27.3338 15.439 27.2633 15.7206L25.8419 21.3988C25.6432 22.1925 24.9309 22.7492 24.1138 22.7492H9.57641C9.13398 22.7492 8.81374 22.3263 8.93307 21.8996L10.2551 17.1727L10.2543 17.1734L10.5793 15.7089C10.6411 15.4304 10.4294 15.1661 10.1445 15.1661H9.36355L9.37903 15.1444C9.27718 15.1587 9.17339 15.1661 9.06821 15.1661H0.668489C0.226062 15.1661 -0.0941793 14.7432 0.0251565 14.3165L1.54404 8.88603C1.75952 8.11562 2.46072 7.58305 3.25959 7.58305H11.5906C12.2583 7.58305 12.854 7.16265 13.0786 6.53286L13.2448 6.06669L14.5772 1.30298Z" fill="url(#paint2_linear)" fill-opacity="0.99"/>
<path d="M14.5772 1.30298C14.7927 0.532572 15.4939 0 16.2927 0H30.9565C31.2464 0 31.459 0.272931 31.3885 0.554533L29.9671 6.23269C29.7684 7.02642 29.0561 7.58305 28.239 7.58305H13.4904C13.0602 7.58305 12.6865 7.85216 12.5397 8.23972L12.482 8.47002C12.4818 8.47174 12.4816 8.47345 12.4814 8.47517H12.4807L11.5857 12.0504L11.5905 12.0437L10.9494 14.6119C10.8792 14.8934 11.0918 15.1661 11.3815 15.1661H26.8313C27.1212 15.1661 27.3338 15.439 27.2633 15.7206L25.8419 21.3988C25.6432 22.1925 24.9309 22.7492 24.1138 22.7492H9.57641C9.13398 22.7492 8.81374 22.3263 8.93307 21.8996L10.2551 17.1727L10.2543 17.1734L10.5793 15.7089C10.6411 15.4304 10.4294 15.1661 10.1445 15.1661H9.36355L9.37903 15.1444C9.27718 15.1587 9.17339 15.1661 9.06821 15.1661H0.668489C0.226062 15.1661 -0.0941793 14.7432 0.0251565 14.3165L1.54404 8.88603C1.75952 8.11562 2.46072 7.58305 3.25959 7.58305H11.5906C12.2583 7.58305 12.854 7.16265 13.0786 6.53286L13.2448 6.06669L14.5772 1.30298Z" fill="url(#paint3_linear)" fill-opacity="0.99"/>
</g>
<path opacity="0.5" d="M14.5772 1.30298C14.7927 0.532572 15.4939 0 16.2927 0H30.9565C31.2464 0 31.459 0.272931 31.3885 0.554533L29.9671 6.23269C29.7684 7.02642 29.0561 7.58305 28.239 7.58305H13.4904C13.0602 7.58305 12.6865 7.85216 12.5397 8.23972L12.482 8.47002C12.4818 8.47174 12.4816 8.47345 12.4813 8.47517H12.4807L11.5857 12.0504L11.5905 12.0437L10.9494 14.6119C10.8792 14.8934 11.0918 15.1661 11.3815 15.1661H26.8313C27.1212 15.1661 27.3338 15.439 27.2633 15.7206L25.8419 21.3988C25.6432 22.1925 24.9309 22.7492 24.1138 22.7492H9.57641C9.13398 22.7492 8.81374 22.3263 8.93307 21.8996L10.2551 17.1727L10.2543 17.1734L10.5793 15.7089C10.6411 15.4304 10.4294 15.1661 10.1445 15.1661H9.36355L9.37903 15.1444C9.27718 15.1587 9.17339 15.1661 9.06821 15.1661H0.668489C0.226062 15.1661 -0.0941793 14.7432 0.0251565 14.3165L1.54404 8.88603C1.75952 8.11562 2.46072 7.58305 3.25959 7.58305H11.5906C12.2583 7.58305 12.854 7.16265 13.0786 6.53286L13.2448 6.06669L14.5772 1.30298Z" fill="#FFB800"/>
<path d="M47.7203 23C52.9317 23 57.3005 19.5531 58.3302 14.7275H53.8054C53.0253 17.203 50.5913 18.7698 47.7203 18.7698C43.4452 18.7698 40.6367 15.7929 40.6367 11.594C40.6367 7.36376 43.4452 4.38692 47.7203 4.38692C50.5913 4.38692 53.0253 5.98501 53.8054 8.46049H58.3302C57.3005 3.60354 52.9005 0.18801 47.7203 0.18801C41.1048 0.18801 36.3615 5.1703 36.3615 11.594C36.3615 17.9864 41.1048 23 47.7203 23Z" fill="white"/>
<path d="M67.2884 23C71.8757 23 75.5579 19.3965 75.5579 14.7275C75.5579 10.0586 71.8757 6.45504 67.2884 6.45504C62.7012 6.45504 59.0502 10.0586 59.0502 14.7275C59.0502 19.3965 62.7012 23 67.2884 23ZM67.2884 19.0518C64.9168 19.0518 63.0757 17.2657 63.0757 14.7275C63.0757 12.1894 64.9168 10.4033 67.2884 10.4033C69.6913 10.4033 71.5324 12.1894 71.5324 14.7275C71.5324 17.2657 69.6913 19.0518 67.2884 19.0518Z" fill="white"/>
<path d="M77.7657 22.5613H81.7912V0H77.7657V22.5613Z" fill="white"/>
<path d="M84.8516 4.70027H88.8771V0.626702H84.8516V4.70027ZM84.8516 22.5613H88.8771V6.89373H84.8516V22.5613Z" fill="white"/>
<path d="M95.4949 11.4373C95.4949 10.5286 96.3062 10.0272 97.5857 10.0272C98.7403 10.0272 99.6452 10.654 99.6452 11.876H103.577C103.577 8.20981 100.706 6.45504 97.5857 6.45504C94.3403 6.45504 91.4694 8.14714 91.4694 11.4373C91.4694 17.4537 99.8637 15.3229 99.8637 18.0177C99.8637 18.9264 99.0523 19.4278 97.5857 19.4278C96.119 19.4278 95.214 18.8011 95.214 17.579H91.2821C91.2821 21.2452 94.153 23 97.5857 23C101.018 23 103.889 21.3392 103.889 18.0177C103.889 11.97 95.4949 14.1635 95.4949 11.4373Z" fill="white"/>
<path d="M109.342 16.3883H121.044C121.169 15.8556 121.2 15.3229 121.2 14.7275C121.2 10.1213 118.017 6.45504 113.43 6.45504C108.499 6.45504 105.16 10.0586 105.16 14.7275C105.16 19.3965 108.437 23 113.523 23C117.018 23 119.764 21.2139 120.732 18.049L116.769 18.0804C116.238 18.9578 114.99 19.6471 113.554 19.6471C111.557 19.6471 109.872 18.6131 109.342 16.3883ZM109.31 13.2234C109.81 11.2493 111.245 10.0899 113.398 10.0899C115.083 10.0899 116.706 10.9673 117.174 13.2234H109.31Z" fill="white"/>
<path d="M132.252 6.89373V15.9496C132.252 18.3311 131.004 19.2398 129.412 19.2398C128.008 19.2398 126.947 18.3937 126.947 16.6076V6.89373H122.921V16.8896C122.921 20.7439 125.106 23 128.008 23C129.943 23 131.378 22.2793 132.252 20.9319V22.5613H136.277V6.89373H132.252Z" fill="white"/>
<path d="M155.163 6.45504C153.322 6.45504 151.918 7.20708 150.857 8.52316C150.045 7.17575 148.704 6.45504 147.112 6.45504C145.521 6.45504 144.21 7.14441 143.367 8.42915V6.89373H139.342V22.5613H143.367V12.8474C143.367 10.8106 144.584 10.2153 145.677 10.2153C146.738 10.2153 147.674 10.748 147.674 12.3147V22.5613H151.699V12.8474C151.699 10.8106 152.916 10.2153 154.009 10.2153C155.07 10.2153 155.974 10.748 155.974 12.3147V22.5613H160V12.0014C160 8.39782 158.096 6.45504 155.163 6.45504Z" fill="white"/>
<defs>
<linearGradient id="paint0_linear" x1="15.7011" y1="-0.946658" x2="18.8714" y2="22.7158" gradientUnits="userSpaceOnUse">
<stop offset="0.0331407" stop-color="#EE0A00"/>
<stop offset="0.288284" stop-color="#FDC266"/>
<stop offset="0.594068" stop-color="#FFD7BD"/>
<stop offset="0.825096" stop-color="#EDAD68"/>
<stop offset="0.967212" stop-color="#8E5B37"/>
</linearGradient>
<linearGradient id="paint1_linear" x1="15.7011" y1="-0.946658" x2="18.8714" y2="22.7158" gradientUnits="userSpaceOnUse">
<stop offset="0.0331407" stop-color="#EE0A00"/>
<stop offset="0.288284" stop-color="#FDC266"/>
<stop offset="0.594068" stop-color="#FFD7BD"/>
<stop offset="0.825096" stop-color="#EDAD68"/>
<stop offset="0.967212" stop-color="#8E5B37"/>
</linearGradient>
<linearGradient id="paint2_linear" x1="0.628042" y1="-5.3644" x2="20.8201" y2="14.1017" gradientUnits="userSpaceOnUse">
<stop stop-color="#BB8612" stop-opacity="0"/>
<stop offset="0.31701" stop-color="#BB8612"/>
<stop offset="0.461935" stop-color="#BB8612" stop-opacity="0.564134"/>
<stop offset="0.651999" stop-color="#BB8612" stop-opacity="0.146741"/>
<stop offset="1" stop-color="#BB8612" stop-opacity="0"/>
</linearGradient>
<linearGradient id="paint3_linear" x1="0.628042" y1="-5.3644" x2="20.8201" y2="14.1017" gradientUnits="userSpaceOnUse">
<stop stop-color="#BB8612" stop-opacity="0"/>
<stop offset="0.31701" stop-color="#BB8612"/>
<stop offset="0.461935" stop-color="#BB8612" stop-opacity="0.564134"/>
<stop offset="0.651999" stop-color="#BB8612" stop-opacity="0.146741"/>
<stop offset="1" stop-color="#BB8612" stop-opacity="0"/>
</linearGradient>
</defs>
</svg>
