<svg width="41" height="40" viewBox="0 0 41 40" fill="none" xmlns="http://www.w3.org/2000/svg">
<rect x="0.5" width="40" height="40" rx="20" fill="white" fill-opacity="0.2"/>
<path fill-rule="evenodd" clip-rule="evenodd" d="M13.9698 13.4697C14.2627 13.1768 14.7376 13.1768 15.0305 13.4697L20.5001 18.9393L25.9698 13.4697C26.2627 13.1768 26.7376 13.1768 27.0305 13.4697C27.3233 13.7626 27.3233 14.2374 27.0305 14.5303L21.5608 20L27.0305 25.4697C27.3233 25.7626 27.3233 26.2374 27.0305 26.5303C26.7376 26.8232 26.2627 26.8232 25.9698 26.5303L20.5001 21.0607L15.0305 26.5303C14.7376 26.8232 14.2627 26.8232 13.9698 26.5303C13.6769 26.2374 13.6769 25.7626 13.9698 25.4697L19.4395 20L13.9698 14.5303C13.6769 14.2374 13.6769 13.7626 13.9698 13.4697Z" fill="white"/>
</svg>