<svg width="16" height="17" viewBox="0 0 16 17" fill="none" xmlns="http://www.w3.org/2000/svg">
<path fill-rule="evenodd" clip-rule="evenodd" d="M8.00001 15.4202C11.6819 15.4202 14.6667 12.4355 14.6667 8.75358C14.6667 5.07168 11.6819 2.08691 8.00001 2.08691C4.31811 2.08691 1.33334 5.07168 1.33334 8.75358C1.33334 12.4355 4.31811 15.4202 8.00001 15.4202ZM6.53034 6.22325C6.23745 5.93036 5.76257 5.93036 5.46968 6.22325C5.17679 6.51614 5.17679 6.99102 5.46968 7.28391L6.93935 8.75358L5.46968 10.2233C5.17679 10.5161 5.17679 10.991 5.46968 11.2839C5.76257 11.5768 6.23745 11.5768 6.53034 11.2839L8.00001 9.81424L9.46968 11.2839C9.76257 11.5768 10.2374 11.5768 10.5303 11.2839C10.8232 10.991 10.8232 10.5161 10.5303 10.2233L9.06067 8.75358L10.5303 7.28391C10.8232 6.99102 10.8232 6.51614 10.5303 6.22325C10.2374 5.93036 9.76257 5.93036 9.46968 6.22325L8.00001 7.69292L6.53034 6.22325Z" fill="#E25B5B"/>
</svg>
