<svg width="30" height="30" viewBox="0 0 30 30" fill="none" xmlns="http://www.w3.org/2000/svg">
<path fill-rule="evenodd" clip-rule="evenodd" d="M25.0064 15.5534C25.0064 10.0285 20.5278 5.54968 15.0032 5.54968C9.47862 5.54968 5 10.0285 5 15.5534C5 21.0783 9.47862 25.5572 15.0032 25.5572C20.5278 25.5572 25.0064 21.0783 25.0064 15.5534ZM23.0057 15.5534C23.0057 11.1335 19.4228 7.55043 15.0032 7.55043C10.5835 7.55043 7.00063 11.1335 7.00063 15.5534C7.00063 19.9734 10.5835 23.5564 15.0032 23.5564C19.4228 23.5564 23.0057 19.9734 23.0057 15.5534ZM15.0032 9.55118C18.3179 9.55118 21.0051 12.2385 21.0051 15.5534H19.5046C19.5046 13.0672 17.4892 11.0517 15.0032 11.0517C12.5171 11.0517 10.5018 13.0672 10.5018 15.5534H9.00127C9.00127 12.2385 11.6884 9.55118 15.0032 9.55118ZM16.9759 14.9367C17.103 14.5644 16.8215 14.1817 16.3472 14.0818C15.8729 13.9821 15.3852 14.2031 15.2582 14.5755L14.0308 18.171C13.9037 18.5433 14.1852 18.9259 14.6596 19.0257C15.1339 19.1254 15.6214 18.9044 15.7485 18.532L16.9759 14.9367Z" fill="white"/>
</svg>
