<svg width="14" height="17" viewBox="0 0 14 17" fill="none" xmlns="http://www.w3.org/2000/svg">
<path d="M12.7057 7.79531L7.3099 13.2057C7.13854 13.3771 6.86146 13.3771 6.6901 13.2057L1.29427 7.79531C1.12292 7.62396 1.12292 7.34688 1.29427 7.17552L2.00885 6.46094C2.18385 6.28594 2.46458 6.28958 2.63229 6.46823L6.04844 10.0083V0.9375C6.04844 0.696875 6.24531 0.5 6.48594 0.5H7.50677C7.7474 0.5 7.94427 0.696875 7.94427 0.9375V10.0083L11.3604 6.46823C11.5318 6.29323 11.8125 6.28958 11.9839 6.46094L12.6984 7.17552C12.8771 7.34688 12.8771 7.62396 12.7057 7.79531ZM13.5625 14.9375H0.4375C0.196875 14.9375 0 15.1344 0 15.375V16.3958C0 16.6365 0.196875 16.8333 0.4375 16.8333H13.5625C13.8031 16.8333 14 16.6365 14 16.3958V15.375C14 15.1344 13.8031 14.9375 13.5625 14.9375Z" fill="white"/>
</svg>
