<svg width="20" height="20" viewBox="0 0 20 20" fill="none" xmlns="http://www.w3.org/2000/svg">
<path d="M9.58333 3.33325H4.07407C3.6566 3.33325 3.25623 3.49909 2.96104 3.79429C2.66584 4.08948 2.5 4.48986 2.5 4.90733V15.9258C2.5 16.3433 2.66584 16.7437 2.96104 17.0389C3.25623 17.3341 3.6566 17.4999 4.07407 17.4999H15.0926C15.5101 17.4999 15.9104 17.3341 16.2056 17.0389C16.5008 16.7437 16.6667 16.3433 16.6667 15.9258V10.4166" stroke="white" stroke-opacity="0.2" stroke-width="2" stroke-linecap="round" stroke-linejoin="round"/>
<path d="M14.9356 2.93999C15.2173 2.65827 15.5994 2.5 15.9978 2.5C16.3962 2.5 16.7783 2.65827 17.06 2.93999C17.3417 3.22171 17.5 3.6038 17.5 4.00221C17.5 4.40062 17.3417 4.78272 17.06 5.06443L10.3326 11.7919L7.5 12.5L8.20815 9.6674L14.9356 2.93999Z" stroke="white" stroke-opacity="0.2" stroke-width="2" stroke-linecap="round" stroke-linejoin="round"/>
</svg>
