<svg width="20" height="20" viewBox="0 0 20 20" fill="none" xmlns="http://www.w3.org/2000/svg">
<path d="M9.91717 11.7861C10.8541 11.7861 11.6137 11.0266 11.6137 10.0896C11.6137 9.15264 10.8541 8.39307 9.91717 8.39307C8.9802 8.39307 8.22063 9.15264 8.22063 10.0896C8.22063 11.0266 8.9802 11.7861 9.91717 11.7861Z" fill="white" fill-opacity="0.2"/>
<path fill-rule="evenodd" clip-rule="evenodd" d="M2 10.0896C3.16449 7.12442 6.30659 5 10 5C13.6934 5 16.8355 7.12443 18 10.0896C16.8355 13.0548 13.6934 15.1792 10 15.1792C6.30659 15.1792 3.16449 13.0548 2 10.0896ZM13.8758 10.0896C13.8758 12.2759 12.1035 14.0482 9.91721 14.0482C7.73094 14.0482 5.95862 12.2759 5.95862 10.0896C5.95862 7.90334 7.73094 6.13102 9.91721 6.13102C12.1035 6.13102 13.8758 7.90334 13.8758 10.0896Z" fill="white" fill-opacity="0.2"/>
</svg>
