<svg width="20" height="20" viewBox="0 0 20 20" fill="black" xmlns="http://www.w3.org/2000/svg">
<path d="M9.95236 4C6.48987 4 3.54422 6.06615 2.45254 8.95C2.59073 9.31507 2.75864 9.66704 2.95355 10.0034L2 10.9522L2.73398 11.7461L3.57401 10.9102C3.88991 11.3056 4.24698 11.6706 4.63931 11.9997L4.02425 13.1049L4.9425 13.6549L5.51035 12.6346C5.97476 12.9271 6.47405 13.1751 7.00117 13.3719L6.71138 14.4939L7.73556 14.7786L8.01952 13.6792C8.47293 13.7849 8.94174 13.8542 9.42221 13.8838V15H10.4825V13.8838C10.9948 13.8523 11.4938 13.7755 11.9749 13.6577L12.2644 14.7786L13.2886 14.4939L12.9903 13.3389C13.5121 13.1374 14.0059 12.8855 14.4647 12.5898L15.0575 13.6549L15.9758 13.1049L15.3301 11.9448C15.7144 11.6153 16.0638 11.251 16.3727 10.8571L17.266 11.7461L18 10.9522L16.9858 9.94299C17.166 9.62498 17.3222 9.29329 17.4522 8.95C16.3605 6.06615 13.4149 4 9.95236 4Z" fill="black" fill-opacity="0.2"/>
</svg>
