<svg width="20" height="19" viewBox="0 0 20 19" fill="none" xmlns="http://www.w3.org/2000/svg">
<g clip-path="url(#clip0_2137_23031)">
<path d="M19.741 6.72706L18.6344 5.62047C18.2893 5.27533 17.7292 5.27533 17.3841 5.62047L16.4379 6.56665L18.7948 8.92359L19.741 7.97741C20.0865 7.63227 20.0865 7.0722 19.741 6.72706ZM11.4257 11.542C11.1617 11.8036 10.9676 12.1273 10.8611 12.4833L10.3323 14.2503H9.47259C9.32398 14.2503 9.19065 14.1677 9.11981 14.0246C8.70419 13.1962 7.51286 12.9712 6.82814 13.5326L6.34619 12.0875C6.23231 11.7469 5.91425 11.5177 5.55522 11.5177C5.19619 11.5177 4.87814 11.7465 4.76425 12.0875L4.13195 13.985C4.07987 14.1441 3.93126 14.2503 3.76424 14.2503H3.33334C3.0264 14.2503 2.77778 14.4989 2.77778 14.8059C2.77778 15.1128 3.0264 15.3614 3.33334 15.3614H3.76424C4.41077 15.3614 4.98265 14.9489 5.18682 14.3361L5.55557 13.2288L6.13925 14.9816C6.17406 15.0858 6.23904 15.1774 6.32595 15.2447C6.41285 15.3121 6.51778 15.3521 6.62744 15.3597C6.64064 15.3607 6.65349 15.3614 6.66633 15.3614C6.87571 15.3614 7.06877 15.243 7.16321 15.0538L7.42918 14.5215C7.52571 14.3274 7.70488 14.3066 7.77745 14.3066C7.85002 14.3066 8.02918 14.3271 8.13127 14.5333C8.38752 15.0437 8.90176 15.3611 9.47224 15.3611H11.6667V17.0281H1.66632V2.58678H7.22085V6.1972C7.22085 6.65901 7.59238 7.03019 8.05418 7.03019H11.6667V9.73852L13.3334 8.08644V5.49963C13.3334 5.05866 13.1538 4.63158 12.8413 4.31942L9.92849 1.40658C9.61599 1.09408 9.19238 0.916992 8.75176 0.916992H1.66632C0.746529 0.920464 0 1.66699 0 2.58678V17.0285C0 17.9482 0.746529 18.6948 1.66632 18.6948H11.6643C12.5844 18.6948 13.3334 17.9482 13.3334 17.0285V14.417L18.0091 9.70935L15.6521 7.35241L11.4257 11.542ZM8.88717 2.7222L11.5292 5.36387H8.88717V2.7222Z" fill="white"/>
</g>
<defs>
<clipPath id="clip0_2137_23031">
<rect width="20" height="17.7778" fill="white" transform="translate(0 0.916992)"/>
</clipPath>
</defs>
</svg>
