<svg width="30" height="30" viewBox="0 0 30 30" fill="none" xmlns="http://www.w3.org/2000/svg">
<path fill-rule="evenodd" clip-rule="evenodd" d="M25.0064 15.0037C25.0064 9.47882 20.5278 5 15.0032 5C9.47862 5 5 9.47882 5 15.0037C5 20.5286 9.47862 25.0075 15.0032 25.0075C20.5278 25.0075 25.0064 20.5286 25.0064 15.0037ZM23.0213 15.0037C23.0213 10.5752 19.4315 6.9851 15.0032 6.9851C10.5749 6.9851 6.985 10.5752 6.985 15.0037C6.985 19.4323 10.5749 23.0224 15.0032 23.0224C19.4315 23.0224 23.0213 19.4323 23.0213 15.0037ZM13.5903 13.0186H15.1032C15.6004 13.0186 16.0035 13.4217 16.0035 13.919V14.1034C16.0035 14.1879 15.9919 14.2697 15.9701 14.3472H16.0035V17.6923H17.4477C17.9449 17.6923 18.348 18.0954 18.348 18.5926V18.7771C18.348 19.2743 17.9449 19.6774 17.4477 19.6774H16.0035H14.0029H12.5587C12.0614 19.6774 11.6584 19.2743 11.6584 18.7771V18.5926C11.6584 18.0954 12.0614 17.6923 12.5587 17.6923H14.0029V15.0037H13.5903C13.093 15.0037 12.69 14.6007 12.69 14.1034V13.919C12.69 13.4217 13.093 13.0186 13.5903 13.0186ZM16.0035 10.5021C16.0035 9.86324 15.4822 9.3454 14.8391 9.3454C14.196 9.3454 13.6746 9.86324 13.6746 10.5021C13.6746 11.1409 14.196 11.6588 14.8391 11.6588C15.4822 11.6588 16.0035 11.1409 16.0035 10.5021Z" fill="white"/>
</svg>
