<svg width="24" height="25" viewBox="0 0 24 25" fill="none" xmlns="http://www.w3.org/2000/svg">
<path d="M12.0055 4.62967C14.572 4.62967 14.876 4.64092 15.8853 4.68595C16.8234 4.72722 17.3299 4.88482 17.6676 5.01614C18.1141 5.18874 18.4368 5.39887 18.7707 5.73281C19.1084 6.07051 19.3148 6.38945 19.4874 6.83596C19.6187 7.17366 19.7763 7.68396 19.8176 8.61825C19.8626 9.63135 19.8739 9.93527 19.8739 12.498C19.8739 15.0645 19.8626 15.3685 19.8176 16.3778C19.7763 17.3158 19.6187 17.8224 19.4874 18.1601C19.3148 18.6066 19.1047 18.9293 18.7707 19.2632C18.433 19.6009 18.1141 19.8073 17.6676 19.9799C17.3299 20.1112 16.8196 20.2688 15.8853 20.3101C14.8722 20.3551 14.5683 20.3664 12.0055 20.3664C9.43903 20.3664 9.1351 20.3551 8.12576 20.3101C7.18771 20.2688 6.68116 20.1112 6.34346 19.9799C5.89695 19.8073 5.57426 19.5972 5.24032 19.2632C4.90262 18.9255 4.69625 18.6066 4.52365 18.1601C4.39232 17.8224 4.23473 17.3121 4.19345 16.3778C4.14843 15.3647 4.13717 15.0608 4.13717 12.498C4.13717 9.93152 4.14843 9.62759 4.19345 8.61825C4.23473 7.6802 4.39232 7.17366 4.52365 6.83596C4.69625 6.38945 4.90637 6.06676 5.24032 5.73281C5.57801 5.39511 5.89695 5.18874 6.34346 5.01614C6.68116 4.88482 7.19146 4.72722 8.12576 4.68595C9.1351 4.64092 9.43903 4.62967 12.0055 4.62967ZM12.0055 2.8999C9.39775 2.8999 9.07131 2.91116 8.04696 2.95619C7.02636 3.00121 6.3247 3.16631 5.71685 3.4027C5.08272 3.65034 4.54616 3.97678 4.01335 4.51335C3.47678 5.04616 3.15034 5.58272 2.9027 6.21309C2.66631 6.8247 2.50121 7.52261 2.45619 8.54321C2.41116 9.57131 2.3999 9.89775 2.3999 12.5055C2.3999 15.1133 2.41116 15.4397 2.45619 16.4641C2.50121 17.4847 2.66631 18.1864 2.9027 18.7942C3.15034 19.4283 3.47678 19.9649 4.01335 20.4977C4.54616 21.0305 5.08272 21.3607 5.71309 21.6046C6.3247 21.841 7.02261 22.0061 8.04321 22.0511C9.06756 22.0961 9.394 22.1074 12.0018 22.1074C14.6096 22.1074 14.936 22.0961 15.9603 22.0511C16.9809 22.0061 17.6826 21.841 18.2905 21.6046C18.9208 21.3607 19.4574 21.0305 19.9902 20.4977C20.523 19.9649 20.8532 19.4283 21.0971 18.798C21.3335 18.1864 21.4986 17.4885 21.5436 16.4679C21.5886 15.4435 21.5999 15.1171 21.5999 12.5093C21.5999 9.9015 21.5886 9.57506 21.5436 8.55071C21.4986 7.53012 21.3335 6.82845 21.0971 6.2206C20.8607 5.58272 20.5343 5.04616 19.9977 4.51335C19.4649 3.98054 18.9283 3.65034 18.298 3.40645C17.6864 3.17006 16.9884 3.00496 15.9679 2.95994C14.9397 2.91116 14.6133 2.8999 12.0055 2.8999Z" fill="white" fill-opacity="0.2"/>
<path d="M12.0054 7.57129C9.28133 7.57129 7.07129 9.78133 7.07129 12.5054C7.07129 15.2295 9.28133 17.4396 12.0054 17.4396C14.7295 17.4396 16.9396 15.2295 16.9396 12.5054C16.9396 9.78133 14.7295 7.57129 12.0054 7.57129ZM12.0054 15.7061C10.2381 15.7061 8.8048 14.2727 8.8048 12.5054C8.8048 10.7381 10.2381 9.3048 12.0054 9.3048C13.7727 9.3048 15.2061 10.7381 15.2061 12.5054C15.2061 14.2727 13.7727 15.7061 12.0054 15.7061Z" fill="white" fill-opacity="0.2"/>
<path d="M18.2868 7.37605C18.2868 8.01392 17.769 8.52797 17.1348 8.52797C16.497 8.52797 15.9829 8.01017 15.9829 7.37605C15.9829 6.73817 16.5007 6.22412 17.1348 6.22412C17.769 6.22412 18.2868 6.74192 18.2868 7.37605Z" fill="white" fill-opacity="0.2"/>
</svg>
