<svg width="30" height="30" viewBox="-4 0 24 15" fill="none" xmlns="http://www.w3.org/2000/svg">
<path d="M16.9469 5.73438C16.2625 5.88438 13.675 6.175 9.24687 3.77187C6.91562 2.50937 4.95 2.19687 3.4125 2.27187C3.79687 1.05312 2.84063 0 1.75 0C0.784375 0 0 0.784375 0 1.75C0 2.44687 0.4125 3.04375 1 3.325V15.75C1 15.8875 1.1125 16 1.25 16H2.25C2.3875 16 2.5 15.8875 2.5 15.75V13.3875C5.025 11.6906 7.3875 11.6469 7.68125 11.6313C8.5625 11.5875 10.0094 11.4469 11.9031 11.0375C12.0406 11.0063 15.3094 10.2719 17.8062 7.14062C18.3094 6.50937 17.7594 5.56875 16.9469 5.73438ZM11.5875 9.57187C9.79062 9.95937 8.43125 10.0906 7.60625 10.1344C5.43125 10.2437 3.68125 10.9563 2.5 11.6313V3.875C3.87812 3.60625 5.925 3.67812 8.53125 5.09062C11.7 6.80625 14.0625 7.27187 15.5906 7.325C13.6594 9.09375 11.6094 9.56562 11.5875 9.57187V9.57187Z" fill="white"/>
</svg>
