<svg width="30" height="30" viewBox="0 0 30 30" fill="none" xmlns="http://www.w3.org/2000/svg">
<path fill-rule="evenodd" clip-rule="evenodd" d="M23.6031 10.2896L15.5565 6.2111C15.0011 5.92963 14.0967 5.92963 13.5365 6.2111L5.42257 10.2896C4.86247 10.5712 4.85865 11.0278 5.41419 11.3092L13.4607 15.3877C14.0163 15.6693 14.9206 15.6693 15.4808 15.3877L23.5948 11.3092C24.155 11.0278 24.1587 10.5712 23.6031 10.2896ZM5.42257 14.4911L6.79457 13.8015H7.05155L6.89617 13.8045L12.92 17.1058H13.0338C13.449 17.2988 13.957 17.4122 14.5056 17.4122C15.0543 17.4122 15.5623 17.2988 15.9775 17.1058H16.0904L22.3411 13.8515L23.6031 14.4911C24.1587 14.7727 24.155 15.2291 23.5948 15.5108L15.4808 19.5892C14.9206 19.8709 14.0163 19.8709 13.4607 19.5892L5.41419 15.5108C4.85865 15.2291 4.86247 14.7727 5.42257 14.4911ZM22.3411 18.0531L23.6031 18.6928C24.1587 18.9743 24.155 19.4308 23.5948 19.7124L15.4808 23.7909C14.9206 24.0726 14.0163 24.0726 13.4607 23.7909L5.41419 19.7124C4.85865 19.4308 4.86247 18.9743 5.42257 18.6928L6.78841 18.0062H6.89631L12.92 21.3075H13.0581C13.4687 21.4927 13.9677 21.6013 14.5056 21.6013C15.0436 21.6013 15.5425 21.4927 15.9532 21.3075H16.0904L22.3411 18.0531Z" fill="white"/>
</svg>
