<svg width="30" height="30" viewBox="0 0 30 30" fill="none" xmlns="http://www.w3.org/2000/svg">
<path d="M12.2 17.8125H12.1993C12.1993 17.2437 12.2474 17.5056 9.1428 11.4313C8.82547 10.8108 8.21238 10.5 7.59928 10.5C6.98691 10.5 6.37453 10.8101 6.05684 11.4313C2.92597 17.5576 3.00072 17.2616 3.00072 17.8125H3C3 19.3657 5.05958 20.625 7.6 20.625C10.1404 20.625 12.2 19.3657 12.2 17.8125ZM5.99144 15.321C6.40112 14.5247 6.92653 13.5037 7.58922 12.1886C7.5903 12.1882 7.59389 12.1875 7.59964 12.1875L7.60036 12.1861C8.31264 13.5797 8.85925 14.6404 9.27864 15.4542C9.68402 16.241 9.98661 16.8295 10.1968 17.25H5.00639C5.2292 16.8042 5.55408 16.1711 5.99144 15.321ZM21.975 22.3125H15.3625V11.4819C16.3479 11.1771 17.1087 10.3794 17.3171 9.375H21.975C22.2927 9.375 22.55 9.12328 22.55 8.8125V8.25C22.55 7.93922 22.2927 7.6875 21.975 7.6875H17.1324C16.6882 6.69504 15.6784 6 14.5 6C13.3216 6 12.3118 6.69504 11.8676 7.6875H7.025C6.70731 7.6875 6.45 7.93922 6.45 8.25V8.8125C6.45 9.12328 6.70731 9.375 7.025 9.375H11.6829C11.8913 10.3794 12.6521 11.1771 13.6375 11.4819V22.3125H7.025C6.70731 22.3125 6.45 22.5642 6.45 22.875V23.4375C6.45 23.7483 6.70731 24 7.025 24H21.975C22.2927 24 22.55 23.7483 22.55 23.4375V22.875C22.55 22.5642 22.2927 22.3125 21.975 22.3125ZM14.5 9.9375C13.8661 9.9375 13.35 9.43266 13.35 8.8125C13.35 8.19234 13.8661 7.6875 14.5 7.6875C15.1339 7.6875 15.65 8.19234 15.65 8.8125C15.65 9.43266 15.1339 9.9375 14.5 9.9375ZM25.9993 17.8125C25.9993 17.2437 26.0474 17.5056 22.9428 11.4313C22.6255 10.8108 22.0124 10.5 21.3993 10.5C20.7869 10.5 20.1745 10.8101 19.8568 11.4313C16.726 17.5576 16.8007 17.2616 16.8007 17.8125H16.8C16.8 19.3657 18.8596 20.625 21.4 20.625C23.9404 20.625 26 19.3657 26 17.8125H25.9993ZM18.8064 17.25C19.0288 16.8042 19.3537 16.1711 19.7911 15.321C20.2008 14.5247 20.7262 13.5037 21.3889 12.1886C21.3899 12.1882 21.3935 12.1875 21.3993 12.1875L21.4 12.1861C22.1123 13.5797 22.6589 14.6404 23.0783 15.4542C23.4837 16.241 23.7862 16.8295 23.9965 17.25H18.8064Z" fill="white"/>
</svg>
