<svg width="30" height="30" viewBox="0 0 30 30" fill="none" xmlns="http://www.w3.org/2000/svg">
<path fill-rule="evenodd" clip-rule="evenodd" d="M20.5043 11.502C20.5043 8.46332 18.0411 6 15.0025 6C11.964 6 9.5008 8.46332 9.5008 11.502C9.5008 13.2147 10.2832 14.7445 11.5101 15.7536C8.84035 16.9696 7 19.5364 7 22.5062C7 22.6281 7.0031 22.7494 7.00923 22.8698C7.00315 22.9145 7 22.96 7 23.0063C7 23.5589 7.44787 24.0068 8.00033 24.0068C8.55276 24.0068 9.00063 23.5589 9.00063 23.0063L9.16519 23.0063C9.14938 22.8416 9.1413 22.6748 9.1413 22.5062C9.1413 19.755 11.2924 17.4754 14.1018 17.0686C14.038 17.2003 14.0022 17.3481 14.0022 17.5043V21.5058C14.0022 22.0582 14.4501 22.5062 15.0025 22.5062C15.555 22.5062 16.0029 22.0582 16.0029 21.5058V17.5043C16.0029 17.3481 15.9671 17.2003 15.9033 17.0686C18.7127 17.4754 20.8638 19.755 20.8638 22.5062C20.8638 22.6748 20.8557 22.8416 20.8399 23.0063L21.0045 23.0063C21.0045 23.5589 21.4523 24.0068 22.0048 24.0068C22.5572 24.0068 23.0051 23.5589 23.0051 23.0063C23.0051 22.96 23.0019 22.9145 22.9959 22.8698C23.002 22.7494 23.0051 22.6281 23.0051 22.5062C23.0051 19.5364 21.1648 16.9696 18.495 15.7536C19.7219 14.7445 20.5043 13.2147 20.5043 11.502ZM15.0025 8.00075C16.9362 8.00075 18.5037 9.56834 18.5037 11.502C18.5037 13.4358 16.9362 15.0033 15.0025 15.0033C13.0689 15.0033 11.5014 13.4358 11.5014 11.502C11.5014 9.56834 13.0689 8.00075 15.0025 8.00075Z" fill="white"/>
</svg>
