<svg width="24" height="25" viewBox="0 0 24 25" fill="none" xmlns="http://www.w3.org/2000/svg">
<path d="M12 2.51953C6.49 2.51953 2.02 6.98953 2.02 12.4995C2.02 18.0095 6.49 22.4795 12 22.4795C17.51 22.4795 21.98 18.0095 21.98 12.4995C21.98 6.98953 17.51 2.51953 12 2.51953ZM12 20.4795C7.6 20.4795 4.02 16.8995 4.02 12.4995C4.02 8.09953 7.6 4.51953 12 4.51953C16.4 4.51953 19.98 8.09953 19.98 12.4995C19.98 16.8995 16.4 20.4795 12 20.4795ZM12.75 5.49953L8.25 13.9995H11.39V19.4995L15.75 10.9995H12.75V5.49953Z" fill="white"/>
</svg>
