<svg width="20" height="4" viewBox="0 0 20 4" fill="none" xmlns="http://www.w3.org/2000/svg">
<path fill-rule="evenodd" clip-rule="evenodd" d="M2.64283 0C1.46426 0 0.499969 0.9 0.499969 2C0.499969 3.1 1.46426 4 2.64283 4C3.8214 4 4.78569 3.1 4.78569 2C4.78569 0.9 3.8214 0 2.64283 0ZM17.6428 0C16.4642 0 15.5 0.9 15.5 2C15.5 3.1 16.4642 4 17.6428 4C18.8214 4 19.7857 3.1 19.7857 2C19.7857 0.9 18.8214 0 17.6428 0ZM7.99997 2C7.99997 0.9 8.96425 0 10.1428 0C11.3214 0 12.2857 0.9 12.2857 2C12.2857 3.1 11.3214 4 10.1428 4C8.96425 4 7.99997 3.1 7.99997 2Z" fill="white"/>
</svg>
