<svg width="30" height="30" viewBox="0 0 30 30" fill="none" xmlns="http://www.w3.org/2000/svg">
<path fill-rule="evenodd" clip-rule="evenodd" d="M11.0019 7H9.00127C8.44883 7 8.00095 7.44795 8.00095 8.00042H6.00032C5.44788 8.00042 5 8.44828 5 9.00075C5 9.55329 5.44788 10.0012 6.00032 10.0012H8.00095C8.00095 10.5536 8.44883 11.0015 9.00127 11.0015H11.0019C11.5544 11.0015 12.0022 10.5536 12.0022 10.0012V8.00042C12.0022 7.44795 11.5544 7 11.0019 7ZM24.006 8.00042H14.0029V10.0012H24.006C24.5585 10.0012 25.0064 9.55329 25.0064 9.00075C25.0064 8.44828 24.5585 8.00042 24.006 8.00042ZM6.00032 14.0027H11.0019V16.0034H6.00032C5.44788 16.0034 5 15.5555 5 15.003C5 14.4505 5.44788 14.0027 6.00032 14.0027ZM19.0045 16.0034V14.0027H24.006C24.5585 14.0027 25.0064 14.4505 25.0064 15.003C25.0064 15.5555 24.5585 16.0034 24.006 16.0034H19.0045ZM24.006 20.0049L22.0054 20.0049C22.0054 19.4524 21.5575 19.0045 21.0051 19.0045H19.0045C18.452 19.0045 18.0041 19.4524 18.0041 20.0049V22.0057C18.0041 22.5581 18.452 23.0061 19.0045 23.0061H21.0051C21.5575 23.0061 22.0054 22.5581 22.0054 22.0057L24.006 22.0057C24.5585 22.0057 25.0064 21.5578 25.0064 21.0053C25.0064 20.4528 24.5585 20.0049 24.006 20.0049ZM6.00032 20.0049H16.0035V22.0057H6.00032C5.44788 22.0057 5 21.5578 5 21.0053C5 20.4528 5.44788 20.0049 6.00032 20.0049ZM14.0029 13.0022H16.0035C16.5559 13.0022 17.0038 13.4502 17.0038 14.0027V16.0034C17.0038 16.5559 16.5559 17.0037 16.0035 17.0037H14.0029C13.4504 17.0037 13.0025 16.5559 13.0025 16.0034V14.0027C13.0025 13.4502 13.4504 13.0022 14.0029 13.0022Z" fill="#FED94B"/>
</svg>
