<svg width="30" height="30" viewBox="0 0 30 30" fill="none" xmlns="http://www.w3.org/2000/svg">
<path fill-rule="evenodd" clip-rule="evenodd" d="M18.7157 9.49046C18.7806 9.36676 18.8717 9.25849 18.9885 9.17405C19.4644 8.83006 20.1866 9.01171 20.6015 9.57999L24.7335 15.2387C25.1484 15.8068 25.099 16.5464 24.6231 16.8903C24.1472 17.2344 23.425 17.0527 23.0101 16.4845L19.7066 11.9604L15.1541 20.3594C14.8609 20.9005 14.2546 21.1466 13.7543 20.9483C13.2739 21.0981 12.7402 20.8889 12.4956 20.4262L9.47899 14.719L6.91155 18.0423C6.54987 18.5105 5.87898 18.5954 5.41312 18.2319C4.94725 17.8686 4.8627 17.1945 5.22441 16.7264L8.49854 12.4882C8.83017 12.059 9.42187 11.9519 9.87704 12.2174C10.2784 12.1968 10.6746 12.4057 10.8756 12.786L13.8139 18.3452L18.4077 9.87004C18.4892 9.71966 18.5949 9.59207 18.7157 9.49046Z" fill="#FED94B"/>
</svg>
