<svg width="12" height="12" viewBox="0 0 12 12" fill="none" xmlns="http://www.w3.org/2000/svg">
<path fill-rule="evenodd" clip-rule="evenodd" d="M4.93317 1.19997C4.79172 1.19997 4.65607 1.25616 4.55605 1.35618C4.45603 1.4562 4.39984 1.59185 4.39984 1.7333V2.26663H7.59984V1.7333C7.59984 1.59185 7.54365 1.4562 7.44363 1.35618C7.34361 1.25616 7.20795 1.19997 7.0665 1.19997H4.93317ZM8.6665 2.26663V1.7333C8.6665 1.30895 8.49793 0.901988 8.19787 0.60193C7.89782 0.301872 7.49085 0.133301 7.0665 0.133301H4.93317C4.50882 0.133301 4.10186 0.301872 3.8018 0.60193C3.50174 0.901988 3.33317 1.30895 3.33317 1.7333V2.26663H1.19984C0.905285 2.26663 0.666504 2.50542 0.666504 2.79997C0.666504 3.09452 0.905285 3.3333 1.19984 3.3333H1.73317V10.2666C1.73317 10.691 1.90174 11.0979 2.2018 11.398C2.50186 11.6981 2.90882 11.8666 3.33317 11.8666H8.6665C9.09085 11.8666 9.49782 11.6981 9.79787 11.398C10.0979 11.0979 10.2665 10.691 10.2665 10.2666V3.3333H10.7998C11.0944 3.3333 11.3332 3.09452 11.3332 2.79997C11.3332 2.50542 11.0944 2.26663 10.7998 2.26663H8.6665ZM2.79984 3.3333V10.2666C2.79984 10.4081 2.85603 10.5437 2.95605 10.6438C3.05607 10.7438 3.19172 10.8 3.33317 10.8H8.6665C8.80795 10.8 8.94361 10.7438 9.04363 10.6438C9.14365 10.5437 9.19984 10.4081 9.19984 10.2666V3.3333H2.79984ZM4.93317 4.9333C5.22772 4.9333 5.4665 5.17208 5.4665 5.46663V8.66663C5.4665 8.96119 5.22772 9.19997 4.93317 9.19997C4.63862 9.19997 4.39984 8.96119 4.39984 8.66663V5.46663C4.39984 5.17208 4.63862 4.9333 4.93317 4.9333ZM6.53317 5.46663C6.53317 5.17208 6.77195 4.9333 7.0665 4.9333C7.36106 4.9333 7.59984 5.17208 7.59984 5.46663V8.66663C7.59984 8.96119 7.36106 9.19997 7.0665 9.19997C6.77195 9.19997 6.53317 8.96119 6.53317 8.66663V5.46663Z" fill="#E25B5B"/>
</svg>
