<svg width="30" height="30" viewBox="0 0 30 30" fill="none" xmlns="http://www.w3.org/2000/svg">
<path fill-rule="evenodd" clip-rule="evenodd" d="M13.1104 5.0062C13.6593 5.06719 14.0549 5.56161 13.9939 6.11052L13.4506 11.0001H17.4383L18.0061 5.88966C18.0671 5.34075 18.5615 4.94521 19.1104 5.0062C19.6593 5.06719 20.0549 5.56161 19.9939 6.11052L19.4506 11.0001H23C23.5523 11.0001 24 11.4478 24 12.0001C24 12.5524 23.5523 13.0001 23 13.0001H19.2284L18.7839 17.0001H23C23.5523 17.0001 24 17.4478 24 18.0001C24 18.5524 23.5523 19.0001 23 19.0001H18.5617L17.9939 24.1105C17.9329 24.6594 17.4385 25.055 16.8896 24.994C16.3407 24.933 15.9451 24.4386 16.0061 23.8897L16.5494 19.0001H12.5617L11.9939 24.1105C11.9329 24.6594 11.4385 25.055 10.8896 24.994C10.3407 24.933 9.94513 24.4386 10.0061 23.8897L10.5494 19.0001H7C6.44772 19.0001 6 18.5524 6 18.0001C6 17.4478 6.44772 17.0001 7 17.0001H10.7716L11.2161 13.0001H7C6.44772 13.0001 6 12.5524 6 12.0001C6 11.4478 6.44772 11.0001 7 11.0001H11.4383L12.0061 5.88966C12.0671 5.34075 12.5615 4.94521 13.1104 5.0062ZM16.7716 17.0001L17.2161 13.0001H13.2284L12.7839 17.0001H16.7716Z" fill="white"/>
</svg>
