<svg width="24" height="25" viewBox="0 0 24 25" fill="none" xmlns="http://www.w3.org/2000/svg">
<path fill-rule="evenodd" clip-rule="evenodd" d="M3.44409 12.5C3.44409 7.77477 7.27465 3.94422 11.9999 3.94422C16.7251 3.94422 20.5557 7.77477 20.5557 12.5C20.5557 17.2252 16.7251 21.0558 11.9999 21.0558C7.27465 21.0558 3.44409 17.2252 3.44409 12.5ZM11.9999 3.05579C6.78398 3.05579 2.55566 7.28411 2.55566 12.5C2.55566 17.7159 6.78398 21.9442 11.9999 21.9442C17.2158 21.9442 21.4441 17.7159 21.4441 12.5C21.4441 7.28411 17.2158 3.05579 11.9999 3.05579ZM12.4906 6.49526C12.4906 6.21912 12.2668 5.99526 11.9906 5.99526C11.7145 5.99526 11.4906 6.21912 11.4906 6.49526V12.4905C11.4906 12.6799 11.5976 12.8531 11.767 12.9378L15.7639 14.9362C16.0109 15.0597 16.3112 14.9596 16.4347 14.7126C16.5582 14.4656 16.4581 14.1653 16.2111 14.0418L12.4906 12.1815V6.49526Z" fill="#FED94B"/>
</svg>
