<svg width="30" height="30" viewBox="0 0 30 30" fill="none" xmlns="http://www.w3.org/2000/svg">
<path d="M6 9H8M8 9H24M8 9V23C8 23.5304 8.21071 24.0391 8.58579 24.4142C8.96086 24.7893 9.46957 25 10 25H20C20.5304 25 21.0391 24.7893 21.4142 24.4142C21.7893 24.0391 22 23.5304 22 23V9H8ZM11 9V7C11 6.46957 11.2107 5.96086 11.5858 5.58579C11.9609 5.21071 12.4696 5 13 5H17C17.5304 5 18.0391 5.21071 18.4142 5.58579C18.7893 5.96086 19 6.46957 19 7V9M13 14V20M17 14V20" stroke="#FED94B" stroke-width="2" stroke-linecap="round" stroke-linejoin="round"/>
</svg>
