<svg width="24" height="25" viewBox="0 0 24 25" fill="none" xmlns="http://www.w3.org/2000/svg">
<path d="M8.44003 20.8998C15.6835 20.8998 19.6465 14.8974 19.6465 9.69372C19.6465 9.52497 19.6428 9.35248 19.6353 9.18374C20.4062 8.62624 21.0715 7.9357 21.5999 7.14456C20.8819 7.46399 20.1196 7.67261 19.339 7.76329C20.1609 7.27064 20.7763 6.49672 21.0711 5.58499C20.2979 6.04321 19.4524 6.36644 18.5707 6.54083C17.9766 5.90962 17.1911 5.49168 16.3356 5.35163C15.4802 5.21158 14.6025 5.35723 13.8381 5.76605C13.0737 6.17487 12.4653 6.8241 12.107 7.61335C11.7486 8.40261 11.6602 9.28794 11.8555 10.1325C10.2899 10.0539 8.75825 9.64719 7.35989 8.93874C5.96152 8.23028 4.72766 7.23587 3.73828 6.01998C3.23542 6.88693 3.08155 7.91281 3.30793 8.88913C3.53431 9.86545 4.12395 10.7189 4.95703 11.2762C4.3316 11.2563 3.71988 11.0879 3.1724 10.7849V10.8337C3.17184 11.7435 3.48638 12.6254 4.06255 13.3295C4.63872 14.0336 5.44096 14.5165 6.3329 14.696C5.75355 14.8545 5.14549 14.8776 4.55578 14.7635C4.80747 15.546 5.29716 16.2303 5.95652 16.721C6.61588 17.2118 7.412 17.4844 8.23378 17.5009C6.83864 18.5968 5.11524 19.1912 3.34115 19.1884C3.02653 19.1879 2.71222 19.1686 2.3999 19.1306C4.20219 20.2868 6.29873 20.9009 8.44003 20.8998Z" fill="white" fill-opacity="0.2"/>
</svg>
