<svg width="30" height="30" viewBox="0 0 30 30" fill="none" xmlns="http://www.w3.org/2000/svg">
<path fill-rule="evenodd" clip-rule="evenodd" d="M15.0025 6C18.0411 6 20.5043 8.46332 20.5043 11.502C20.5043 13.2147 19.7219 14.7445 18.495 15.7536C21.1648 16.9696 23.0051 19.5364 23.0051 22.5062C23.0051 22.6281 23.002 22.7494 22.9959 22.8698C23.0019 22.9145 23.0051 22.96 23.0051 23.0063C23.0051 23.5589 22.5572 24.0068 22.0048 24.0068C21.4523 24.0068 21.0045 23.5589 21.0045 23.0063L20.8399 23.0063C20.8557 22.8416 20.8638 22.6748 20.8638 22.5062C20.8638 19.4675 18.2396 17.0041 15.0025 17.0041C11.7655 17.0041 9.1413 19.4675 9.1413 22.5062C9.1413 22.6748 9.14938 22.8416 9.16519 23.0063H8.99998C8.99655 23.5557 8.55014 24 8.00001 24C7.44773 24 7 23.5523 7 23C7 22.9543 7.00306 22.9093 7.009 22.8652C7.00302 22.7463 7 22.6266 7 22.5062C7 19.5364 8.84035 16.9696 11.5101 15.7536C10.2832 14.7445 9.5008 13.2147 9.5008 11.502C9.5008 8.46332 11.964 6 15.0025 6ZM18.5037 11.502C18.5037 9.56834 16.9362 8.00075 15.0025 8.00075C13.0689 8.00075 11.5014 9.56834 11.5014 11.502C11.5014 13.4358 13.0689 15.0033 15.0025 15.0033C16.9362 15.0033 18.5037 13.4358 18.5037 11.502Z" fill="#FED94B"/>
</svg>
