<svg width="40" height="47" viewBox="0 0 40 47" fill="none" xmlns="http://www.w3.org/2000/svg">
<path d="M19.9999 24.1875C17.684 24.1875 15.42 23.502 13.4944 22.2178C11.5688 20.9336 10.0679 19.1082 9.18161 16.9726C8.29534 14.837 8.06344 12.487 8.51526 10.2199C8.96708 7.95273 10.0823 5.87022 11.7199 4.23569C13.3576 2.60117 15.444 1.48804 17.7155 1.03708C19.987 0.586113 22.3414 0.817564 24.481 1.70216C26.6207 2.58676 28.4495 4.08478 29.7362 6.00678C31.0229 7.92878 31.7096 10.1884 31.7096 12.5C31.7096 15.5997 30.4759 18.5725 28.2799 20.7643C26.0839 22.9561 23.1055 24.1875 19.9999 24.1875ZM13.6128 29.5C13.9332 29.5026 14.2515 29.5518 14.5576 29.6461C18.0826 30.868 21.9173 30.868 25.4423 29.6461C25.7484 29.5518 26.0667 29.5026 26.387 29.5C32.0955 29.5 36.9923 32.7406 39.4939 37.4422C30.4362 48.188 14.366 49.5706 3.59974 40.5301C2.48192 39.591 1.44688 38.5579 0.505993 37.4422C3.0076 32.7406 7.90438 29.5 13.6128 29.5Z" fill="black"/>
</svg>
