<svg width="30" height="30" viewBox="0 0 30 30" fill="none" xmlns="http://www.w3.org/2000/svg">
<path fill-rule="evenodd" clip-rule="evenodd" d="M23.0057 21.0049C23.0057 18.906 21.1879 17.1846 18.8755 17.0168C18.4739 16.3605 17.9763 15.7629 17.4008 15.241C17.4641 15.1048 17.5228 14.9661 17.5768 14.825C17.8636 14.9396 18.1766 15.0027 18.5043 15.0027C19.8855 15.0027 21.0051 13.883 21.0051 12.5017C21.0051 11.1205 19.8855 10.0007 18.5043 10.0007C18.1766 10.0007 17.8636 10.0638 17.5768 10.1784C17.3336 9.5428 16.9935 8.95512 16.5747 8.43344C17.1595 8.15552 17.8137 8 18.5043 8C20.9904 8 23.0057 10.0155 23.0057 12.5017C23.0057 13.7735 22.4784 14.922 21.6305 15.7407C23.6426 16.7611 25.0063 18.736 25.0063 21.0049C25.0063 21.5574 24.5585 22.0053 24.006 22.0053C23.4536 22.0053 23.0057 21.5574 23.0057 21.0049ZM8.37586 15.7407C7.52796 14.922 7.00065 13.7735 7.00065 12.5017C7.00065 10.0155 9.01602 8 11.5021 8C13.9881 8 16.0035 10.0155 16.0035 12.5017C16.0035 13.7735 15.4762 14.922 14.6283 15.7407C16.6404 16.7611 18.0041 18.736 18.0041 21.0049C18.0041 21.5574 17.5563 22.0053 17.0038 22.0053C16.4514 22.0053 16.0035 21.5574 16.0035 21.0049C16.0035 18.795 13.9881 17.0034 11.5021 17.0034C9.01602 17.0034 7.00065 18.795 7.00065 21.0049C7.00065 21.5574 6.55276 22.0053 6.00033 22.0053C5.44788 22.0053 5 21.5574 5 21.0049C5 18.736 6.36377 16.7611 8.37586 15.7407ZM11.5021 10.0007C12.8832 10.0007 14.0029 11.1205 14.0029 12.5017C14.0029 13.883 12.8832 15.0027 11.5021 15.0027C10.1209 15.0027 9.00127 13.883 9.00127 12.5017C9.00127 11.1205 10.1209 10.0007 11.5021 10.0007Z" fill="#FED94B"/>
</svg>
