<svg width="16" height="17" viewBox="0 0 16 17" fill="none" xmlns="http://www.w3.org/2000/svg">
<path d="M8.00001 2.08691C4.33334 2.08691 1.33334 5.08691 1.33334 8.75358C1.33334 12.4202 4.33334 15.4202 8.00001 15.4202C11.6667 15.4202 14.6667 12.4202 14.6667 8.75358C14.6667 5.08691 11.6667 2.08691 8.00001 2.08691ZM10.3667 11.2869L7.64668 9.61358C7.44668 9.49358 7.32668 9.28025 7.32668 9.04691V5.92025C7.33334 5.64691 7.56001 5.42025 7.83334 5.42025C8.10668 5.42025 8.33334 5.64691 8.33334 5.92025V8.88691L10.8933 10.4269C11.1333 10.5736 11.2133 10.8869 11.0667 11.1269C10.92 11.3602 10.6067 11.4336 10.3667 11.2869Z" fill="#FED94B"/>
</svg>
